<?xml version="1.0" encoding="UTF-8" standalone="no"?>
<svg
   width="1024"
   height="1024"
   viewBox="0 0 1024 1024"
   fill="none"
   version="1.1"
   id="svg25"
   sodipodi:docname="Bing_Fluent_Logo.svg"
   inkscape:version="1.2.2 (b0a84865, 2022-12-01)"
   xmlns:inkscape="http://www.inkscape.org/namespaces/inkscape"
   xmlns:sodipodi="http://sodipodi.sourceforge.net/DTD/sodipodi-0.dtd"
   xmlns="http://www.w3.org/2000/svg"
   xmlns:svg="http://www.w3.org/2000/svg">
  <sodipodi:namedview
     id="namedview27"
     pagecolor="#ffffff"
     bordercolor="#000000"
     borderopacity="0.25"
     inkscape:showpageshadow="2"
     inkscape:pageopacity="0.0"
     inkscape:pagecheckerboard="0"
     inkscape:deskcolor="#d1d1d1"
     showgrid="false"
     inkscape:zoom="0.52011729"
     inkscape:cx="509.50046"
     inkscape:cy="511.4231"
     inkscape:window-width="1512"
     inkscape:window-height="916"
     inkscape:window-x="0"
     inkscape:window-y="38"
     inkscape:window-maximized="1"
     inkscape:current-layer="svg25" />
  <path
     fill-rule="evenodd"
     clip-rule="evenodd"
     d="m 515.44377,322.924 c -18.874,2.193 -33.268,17.521 -34.606,36.851 -0.577,8.329 -0.396,8.894 18.483,57.475 42.952,110.53 53.358,137.132 55.108,140.876 4.24,9.067 10.202,17.597 17.651,25.253 5.716,5.875 9.486,9.034 15.862,13.293 11.206,7.484 16.767,9.553 60.372,22.464 42.476,12.577 65.682,20.936 85.679,30.861 25.906,12.858 43.981,27.484 55.414,44.838 8.203,12.452 15.468,34.781 18.629,57.258 1.236,8.786 1.244,28.208 0.015,36.151 -2.667,17.239 -7.994,31.685 -16.143,43.774 -4.334,6.429 -2.826,5.353 3.475,-2.482 17.832,-22.171 35.997,-60.064 45.266,-94.426 11.217,-41.587 12.743,-86.244 4.391,-128.511 -16.265,-82.309 -68.226,-153.342 -141.408,-193.31 -4.598,-2.512 -22.112,-11.692 -45.856,-24.037 -3.603,-1.874 -8.516,-4.439 -10.918,-5.7 -2.402,-1.262 -7.315,-3.827 -10.918,-5.7 -3.603,-1.873 -13.975,-7.277 -23.049,-12.008 -9.074,-4.732 -19.227,-10.026 -22.563,-11.765 -10.169,-5.302 -16.992,-8.864 -22.079,-11.527 -23.528,-12.317 -33.487,-17.296 -36.326,-18.16 -2.978,-0.906 -10.543,-2.069 -12.441,-1.913 -0.4,0.033 -2.217,0.233 -4.038,0.445 z"
     fill="url(#paint0_radial_2_17)"
     id="path2"
     style="fill:url(#paint0_radial_2_17)" />
  <path
     d="m 566.73677,735.544 c -1.304,0.772 -3.134,1.89 -4.068,2.483 -0.935,0.594 -3.009,1.883 -4.61,2.866 -5.877,3.607 -21.507,13.238 -34.938,21.529 -8.827,5.449 -10.137,6.261 -21.35,13.22 -4.004,2.484 -8.262,5.102 -9.463,5.818 -1.201,0.716 -6.332,3.876 -11.403,7.022 -5.071,3.145 -13.914,8.605 -19.652,12.132 -5.738,3.526 -16.001,9.857 -22.806,14.068 -6.806,4.21 -15.759,9.731 -19.895,12.268 -4.137,2.536 -7.958,4.986 -8.492,5.444 -0.793,0.68 -37.585,23.471 -56.046,34.718 -14.021,8.541 -30.241,14.254 -46.845,16.498 -7.73,1.044 -22.358,1.048 -30.066,0.006 -20.9009,-2.822 -40.1554,-10.617 -56.6454,-22.929 -6.4683,-4.83 -18.6459,-16.998 -23.3013,-23.284 -10.9708,-14.811 -18.06801,-30.698 -21.74372,-48.674 -0.84577,-4.137 -1.64592,-7.63 -1.77742,-7.764 -0.34355,-0.347 0.27704,5.902 1.39649,14.072 1.1641,8.497 3.6447,20.787 6.31645,31.298 20.6752,81.345 79.5075,147.507 159.1519,178.985 22.934,9.06 46.077,14.77 71.258,17.57 9.462,1.06 36.245,1.48 46.12,0.73 45.287,-3.43 84.719,-16.76 125.171,-42.325 3.603,-2.277 10.372,-6.545 15.042,-9.486 4.671,-2.94 10.566,-6.678 13.102,-8.305 2.535,-1.628 5.592,-3.551 6.793,-4.273 1.201,-0.723 3.603,-2.232 5.338,-3.355 1.735,-1.122 9.159,-5.818 16.498,-10.435 l 29.348,-18.537 10.077,-6.365 0.363,-0.229 1.11,-0.701 0.528,-0.334 7.419,-4.686 25.64,-16.195 c 32.67,-20.529 42.412,-27.736 57.59,-42.604 6.328,-6.197 15.868,-16.777 16.342,-18.12 0.096,-0.273 1.792,-2.889 3.768,-5.813 8.032,-11.885 13.388,-26.444 16.044,-43.613 1.229,-7.943 1.221,-27.365 -0.015,-36.151 -2.389,-16.987 -7.817,-36.255 -13.669,-48.524 -9.597,-20.118 -30.041,-38.398 -59.41,-53.12 -8.109,-4.065 -16.483,-7.785 -17.418,-7.736 -0.443,0.023 -27.773,16.728 -60.733,37.124 -32.96,20.396 -61.566,38.099 -63.567,39.341 -2.002,1.243 -5.441,3.344 -7.643,4.668 z"
     fill="url(#paint1_radial_2_17)"
     id="path4"
     style="fill:url(#paint1_radial_2_17)" />
  <path
     d="m 173.14093,637.697 0.14121,142.055 1.83861,8.249 c 5.74915,25.791 15.71022,44.386 33.02702,61.657 8.1453,8.124 14.3739,13.022 23.2005,18.245 18.6774,11.053 38.7791,16.506 60.7975,16.496 23.061,-0.012 43.01,-5.764 63.567,-18.329 3.469,-2.12 17.062,-10.489 30.206,-18.598 l 23.898,-14.743 V 664.186 495.643 l -0.007,-154.186 c -0.005,-98.368 -0.185,-156.787 -0.496,-161.37 -1.96,-28.801 -14.005,-55.278 -34.259,-75.305 -6.216,-6.1463 -11.527,-10.2515 -27.349,-21.1393 -7.873,-5.4183 -22.285,-15.3439 -32.026,-22.0567 -9.741,-6.7133 -25.79,-17.7725 -35.665,-24.5766 -9.8748,-6.8036 -23.959,-16.5108 -31.2983,-21.5709 -15.2895,-10.54193 -16.4861,-11.27515 -21.108,-12.92886 -6.0117,-2.150592 -12.3824,-2.940554 -18.4392,-2.286447 -17.6532,1.906517 -31.78488,14.652407 -35.45816,31.980907 -0.57161,2.696 -0.67693,38.5753 -0.68421,233.3119 l -0.008,230.127 H 173 Z"
     fill="url(#paint2_linear_2_17)"
     id="path6"
     style="fill:url(#paint2_linear_2_17)" />
  <defs
     id="defs23">
    <radialGradient
       id="paint0_radial_2_17"
       cx="0"
       cy="0"
       r="1"
       gradientUnits="userSpaceOnUse"
       gradientTransform="matrix(-346.4626,-399.84044,287.70292,-249.2952,827.12577,722.251)">
      <stop
         stop-color="#00CACC"
         id="stop8" />
      <stop
         offset="1"
         stop-color="#048FCE"
         id="stop10" />
    </radialGradient>
    <radialGradient
       id="paint1_radial_2_17"
       cx="0"
       cy="0"
       r="1"
       gradientUnits="userSpaceOnUse"
       gradientTransform="matrix(526.00249,-225.39497,375.62808,876.60034,261.81807,915.135)">
      <stop
         stop-color="#00BBEC"
         id="stop13" />
      <stop
         offset="1"
         stop-color="#2756A9"
         id="stop15" />
    </radialGradient>
    <linearGradient
       id="paint2_linear_2_17"
       x1="118.409"
       y1="0"
       x2="118.409"
       y2="884.39899"
       gradientUnits="userSpaceOnUse"
       gradientTransform="translate(172.99977)">
      <stop
         stop-color="#00BBEC"
         id="stop18" />
      <stop
         offset="1"
         stop-color="#2756A9"
         id="stop20" />
    </linearGradient>
  </defs>
</svg>
